<?xml version="1.0" encoding="utf-8"?>
<!-- Generator: Adobe Illustrator 25.0.1, SVG Export Plug-In . SVG Version: 6.00 Build 0)  -->
<svg version="1.1" id="Capa_1" xmlns="http://www.w3.org/2000/svg" xmlns:xlink="http://www.w3.org/1999/xlink" x="0px" y="0px"
	 viewBox="0 0 512 512" style="enable-background:new 0 0 512 512;" xml:space="preserve">
<style type="text/css">
	.st0{fill:#FFFFFF;}
</style>
<g>
	<path class="st0" d="M121,256c0,74.4,60.6,135,135,135s135-60.6,135-135s-60.6-135-135-135S121,181.6,121,256z M256,151
		c57.9,0,105,47.1,105,105s-47.1,105-105,105s-105-47.1-105-105S198.1,151,256,151z"/>
	<path class="st0" d="M372.7,372.7c-5.9,5.9-5.9,15.4,0,21.2l72.4,72.4c5.9,5.9,15.4,5.9,21.2,0c5.9-5.9,5.9-15.4,0-21.2l-72.4-72.4
		C388,366.8,378.5,366.8,372.7,372.7z"/>
	<path class="st0" d="M66.9,45.7c-5.9-5.9-15.4-5.9-21.2,0s-5.9,15.4,0,21.2l72.4,72.4c5.9,5.9,15.4,5.9,21.2,0
		c5.9-5.9,5.9-15.4,0-21.2L66.9,45.7z"/>
	<path class="st0" d="M45.7,466.3c5.9,5.9,15.4,5.9,21.2,0l72.4-72.4c5.9-5.9,5.9-15.4,0-21.2c-5.9-5.9-15.4-5.9-21.2,0l-72.4,72.4
		C39.8,451,39.8,460.5,45.7,466.3z"/>
	<path class="st0" d="M466.3,45.7c-5.9-5.9-15.4-5.9-21.2,0l-72.4,72.4c-5.9,5.9-5.9,15.4,0,21.2c5.9,5.9,15.4,5.9,21.2,0l72.4-72.4
		C472.2,61,472.2,51.5,466.3,45.7z"/>
	<path class="st0" d="M319.1,408.4c-7.7,3.2-11.3,11.9-8.1,19.6l11.5,27.7c3.2,7.6,11.9,11.3,19.6,8.1c7.7-3.2,11.3-11.9,8.1-19.6
		l-11.5-27.7C335.6,408.9,326.8,405.3,319.1,408.4z"/>
	<path class="st0" d="M192.9,103.6c7.7-3.2,11.3-11.9,8.1-19.6l-11.5-27.7c-3.2-7.7-11.9-11.3-19.6-8.1c-7.7,3.2-11.3,11.9-8.1,19.6
		l11.5,27.7C176.4,103.1,185.2,106.7,192.9,103.6z"/>
	<path class="st0" d="M84,311l-27.7,11.5c-7.7,3.2-11.3,11.9-8.1,19.6c3.2,7.6,11.9,11.3,19.6,8.1l27.7-11.5
		c7.7-3.2,11.3-11.9,8.1-19.6C100.4,311.5,91.6,307.9,84,311z"/>
	<path class="st0" d="M428,201l27.7-11.5c7.7-3.2,11.3-11.9,8.1-19.6s-11.9-11.3-19.6-8.1l-27.7,11.5c-7.7,3.2-11.3,11.9-8.1,19.6
		C411.6,200.5,420.4,204.1,428,201z"/>
	<path class="st0" d="M173.3,416.6l-11.5,27.7c-3.2,7.7,0.5,16.4,8.1,19.6c7.7,3.2,16.4-0.5,19.6-8.1L201,428
		c3.2-7.7-0.5-16.4-8.1-19.6C185.2,405.3,176.4,408.9,173.3,416.6z"/>
	<path class="st0" d="M338.7,95.4l11.5-27.7c3.2-7.7-0.5-16.4-8.1-19.6c-7.7-3.2-16.4,0.5-19.6,8.1L311,84
		c-3.2,7.7,0.5,16.4,8.1,19.6C326.8,106.7,335.6,103.1,338.7,95.4z"/>
	<path class="st0" d="M95.4,173.3l-27.7-11.5c-7.7-3.2-16.4,0.5-19.6,8.1c-3.2,7.7,0.5,16.4,8.1,19.6L84,201
		c7.7,3.2,16.4-0.5,19.6-8.1C106.7,185.2,103.1,176.4,95.4,173.3z"/>
	<path class="st0" d="M455.8,322.5L428,311c-7.7-3.2-16.4,0.5-19.6,8.1c-3.2,7.7,0.5,16.4,8.1,19.6l27.7,11.5
		c7.7,3.2,16.4-0.5,19.6-8.1C467,334.5,463.4,325.7,455.8,322.5z"/>
	<path class="st0" d="M241,436v61c0,8.3,6.7,15,15,15s15-6.7,15-15v-61c0-8.3-6.7-15-15-15S241,427.7,241,436z"/>
	<path class="st0" d="M271,76V15c0-8.3-6.7-15-15-15s-15,6.7-15,15v61c0,8.3,6.7,15,15,15S271,84.3,271,76z"/>
	<path class="st0" d="M0,256c0,8.3,6.7,15,15,15h61c8.3,0,15-6.7,15-15s-6.7-15-15-15H15C6.7,241,0,247.7,0,256z"/>
	<path class="st0" d="M497,241h-61c-8.3,0-15,6.7-15,15s6.7,15,15,15h61c8.3,0,15-6.7,15-15S505.3,241,497,241z"/>
</g>
</svg>
