<?xml version="1.0" encoding="utf-8"?>
<!-- Generator: Adobe Illustrator 25.0.1, SVG Export Plug-In . SVG Version: 6.00 Build 0)  -->
<svg version="1.1" id="Layer_1" xmlns="http://www.w3.org/2000/svg" xmlns:xlink="http://www.w3.org/1999/xlink" x="0px" y="0px"
	 viewBox="0 0 512 512" style="enable-background:new 0 0 512 512;" xml:space="preserve">
<style type="text/css">
	.st0{fill:#FFFFFF;}
</style>
<g>
	<path class="st0" d="M400,336H112C50.2,336,0,285.8,0,224s50.2-112,112-112c5.7,0,11.3,0.4,16.8,1.3C136.2,49.6,190.4,0,256,0
		s119.8,49.6,127.2,113.3c5.5-0.8,11.2-1.3,16.8-1.3c61.8,0,112,50.2,112,112S461.8,336,400,336L400,336z M112,144
		c-44.1,0-80,35.9-80,80s35.9,80,80,80h288c44.1,0,80-35.9,80-80s-35.9-80-80-80c-9.2,0-18.2,1.5-26.8,4.6c-5,1.8-10.6,0.9-14.9-2.3
		c-4.3-3.2-6.7-8.3-6.4-13.7c0.1-1.4,0.1-2.9,0.1-4.6c0-52.9-43.1-96-96-96s-96,43.1-96,96c0,1.7,0,3.2,0.1,4.6
		c0.3,5.3-2.1,10.5-6.4,13.7c-4.3,3.2-9.9,4.1-14.9,2.3C130.2,145.5,121.2,144,112,144z"/>
	<path class="st0" d="M216,424c-3.1,0-6.1-0.9-8.9-2.7c-7.4-4.9-9.3-14.8-4.4-22.2l16-24c4.9-7.4,14.8-9.3,22.2-4.4
		c7.4,4.9,9.3,14.8,4.4,22.2l-16,24C226.2,421.5,221.2,424,216,424L216,424z"/>
	<path class="st0" d="M80,424c-3.1,0-6.1-0.9-8.9-2.7c-7.4-4.9-9.3-14.8-4.4-22.2l16-24c4.9-7.4,14.8-9.3,22.2-4.4
		c7.4,4.9,9.3,14.8,4.4,22.2l-16,24C90.2,421.5,85.2,424,80,424L80,424z"/>
	<path class="st0" d="M368,424c-3,0-6.1-0.9-8.9-2.7c-7.4-4.9-9.3-14.8-4.4-22.2l16-24c4.9-7.4,14.8-9.3,22.2-4.4
		c7.4,4.9,9.3,14.8,4.4,22.2l-16,24C378.2,421.5,373.2,424,368,424L368,424z"/>
	<path class="st0" d="M216,512c-3.1,0-6.1-0.9-8.9-2.7c-7.4-4.9-9.3-14.8-4.4-22.2l16-24c4.9-7.4,14.8-9.3,22.2-4.4
		c7.4,4.9,9.3,14.8,4.4,22.2l-16,24C226.2,509.5,221.2,512,216,512z"/>
	<path class="st0" d="M288,456c-3,0-6.1-0.9-8.9-2.7c-7.4-4.9-9.3-14.8-4.4-22.2l16-24c4.9-7.4,14.8-9.3,22.2-4.4
		c7.4,4.9,9.3,14.8,4.4,22.2l-16,24C298.2,453.5,293.2,456,288,456L288,456z"/>
	<path class="st0" d="M360,512c-3,0-6.1-0.9-8.9-2.7c-7.4-4.9-9.3-14.8-4.4-22.2l16-24c4.9-7.4,14.8-9.3,22.2-4.4
		c7.4,4.9,9.3,14.8,4.4,22.2l-16,24C370.2,509.5,365.2,512,360,512z"/>
	<path class="st0" d="M144,456c-3.1,0-6.1-0.9-8.9-2.7c-7.4-4.9-9.3-14.8-4.4-22.2l16-24c4.9-7.4,14.8-9.3,22.2-4.4
		c7.4,4.9,9.3,14.8,4.4,22.2l-16,24C154.2,453.5,149.2,456,144,456L144,456z"/>
	<path class="st0" d="M72,512c-3.1,0-6.1-0.9-8.9-2.7c-7.4-4.9-9.3-14.8-4.4-22.2l16-24c4.9-7.4,14.8-9.3,22.2-4.4
		c7.4,4.9,9.3,14.8,4.4,22.2l-16,24C82.2,509.5,77.2,512,72,512z"/>
</g>
</svg>
