<?xml version="1.0" encoding="utf-8"?>
<!-- Generator: Adobe Illustrator 25.0.1, SVG Export Plug-In . SVG Version: 6.00 Build 0)  -->
<svg version="1.1" id="Capa_1" xmlns="http://www.w3.org/2000/svg" xmlns:xlink="http://www.w3.org/1999/xlink" x="0px" y="0px"
	 viewBox="0 0 512 512" style="enable-background:new 0 0 512 512;" xml:space="preserve">
<style type="text/css">
	.st0{fill:#FFFFFF;}
</style>
<g id="Cloud_1_">
	<g>
		<path class="st0" d="M421,406H91c-24.1,0-46.8-9.3-64-26.3C9.6,362.7,0,340,0,316s9.6-46.7,27-63.7c13.6-13.4,30.7-22,49.1-25
			c0-0.4,0-0.8,0-1.2c0-66.2,53.8-120,120-120c24.5,0,48.1,7.4,68.2,21.4c14.1,9.8,25.9,22.4,34.6,37c14.1-8.7,30.3-13.4,47.2-13.4
			c44.9,0,82.2,33,88.9,76.1c18.8,2.9,36.2,11.6,50.1,25.2c17.4,17.1,27,39.7,27,63.7s-9.6,46.7-27,63.7
			C467.8,396.7,445,406,421,406z M91,256c-33.6,0-61,26.9-61,60s27.4,60,61,60h330c33.6,0,61-26.9,61-60s-27.4-60-61-60h-15v-15
			c0-33.1-26.9-60-60-60c-15.8,0-30.7,6.1-42,17.2l-16.1,15.9l-8.3-21c-13.7-34.7-46.5-57-83.5-57c-49.6,0-90,40.4-90,90
			c0,3.5,0.6,7.3,1.1,11.4l2.7,18.6H91z"/>
	</g>
</g>
</svg>
