<?xml version="1.0" encoding="utf-8"?>
<!-- Generator: Adobe Illustrator 25.0.1, SVG Export Plug-In . SVG Version: 6.00 Build 0)  -->
<svg version="1.1" id="Layer_1" xmlns="http://www.w3.org/2000/svg" xmlns:xlink="http://www.w3.org/1999/xlink" x="0px" y="0px"
	 viewBox="0 0 512 512" style="enable-background:new 0 0 512 512;" xml:space="preserve">
<style type="text/css">
	.st0{fill:#FFFFFF;}
</style>
<path class="st0" d="M497,241h-21.7l11.6-20.1c4.1-7.2,1.7-16.3-5.5-20.5c-7.2-4.1-16.3-1.7-20.5,5.5L440.6,241h-59.4l13.5-31
	c1.6-3.7,1.7-8,0.1-11.7s-4.6-6.7-8.4-8.2l-31.1-12.1l41.9-41.9l39.2,10.5c1.3,0.3,2.6,0.5,3.9,0.5c6.6,0,12.7-4.4,14.5-11.1
	c2.1-8-2.6-16.2-10.6-18.4l-22.5-6L437,96.2c5.9-5.9,5.9-15.4,0-21.2c-5.9-5.9-15.4-5.9-21.2,0l-15.4,15.4l-6-22.5
	c-2.1-8-10.4-12.8-18.4-10.6c-8,2.1-12.8,10.4-10.6,18.4l10.5,39.2l-42,42l-12.4-31.5c-1.5-3.8-4.5-6.8-8.2-8.4
	c-3.8-1.6-8-1.5-11.7,0.1L271,130.6V71.4l35.1-20.3c7.2-4.1,9.6-13.3,5.5-20.5c-4.1-7.2-13.3-9.6-20.5-5.5L271,36.7V15
	c0-8.3-6.7-15-15-15s-15,6.7-15,15v21.7l-20.1-11.6c-7.2-4.1-16.3-1.7-20.5,5.5c-4.1,7.2-1.7,16.3,5.5,20.5L241,71.4v59.4l-31-13.5
	c-3.7-1.6-8-1.7-11.7-0.1c-3.8,1.6-6.7,4.6-8.2,8.4l-12.1,31.1L136,114.8l10.5-39.2c2.1-8-2.6-16.2-10.6-18.4
	c-8-2.1-16.2,2.6-18.4,10.6l-6,22.5L96.2,75c-5.9-5.9-15.4-5.9-21.2,0s-5.9,15.4,0,21.2l15.4,15.4l-22.5,6
	c-8,2.1-12.8,10.4-10.6,18.4c1.8,6.7,7.9,11.1,14.5,11.1c1.3,0,2.6-0.2,3.9-0.5l39.2-10.5l42,42l-31.5,12.4
	c-3.8,1.5-6.8,4.5-8.4,8.2s-1.5,8,0.1,11.7l13.5,30.6H71.4l-20.3-35.1c-4.1-7.2-13.3-9.6-20.5-5.5c-7.2,4.1-9.6,13.3-5.5,20.5
	L36.7,241H15c-8.3,0-15,6.7-15,15c0,8.3,6.7,15,15,15h21.7l-11.6,20.1c-4.1,7.2-1.7,16.3,5.5,20.5c2.4,1.4,4.9,2,7.5,2
	c5.2,0,10.2-2.7,13-7.5L71.4,271h59.4l-13.5,31c-1.6,3.7-1.7,8-0.1,11.7s4.6,6.7,8.4,8.2l31.1,12.1L114.8,376l-39.2-10.5
	c-8-2.1-16.2,2.6-18.4,10.6c-2.1,8,2.6,16.2,10.6,18.4l22.5,6L75,415.8c-5.9,5.9-5.9,15.4,0,21.2c2.9,2.9,6.8,4.4,10.6,4.4
	s7.7-1.5,10.6-4.4l15.4-15.4l6,22.5c1.8,6.7,7.9,11.1,14.5,11.1c1.3,0,2.6-0.2,3.9-0.5c8-2.1,12.8-10.4,10.6-18.4L136,397.2l42-42
	l12.4,31.5c1.5,3.8,4.5,6.8,8.2,8.4c1.8,0.8,3.8,1.1,5.7,1.1c2.1,0,4.1-0.4,6-1.3l30.6-13.5v59.2l-35.1,20.3
	c-7.2,4.1-9.6,13.3-5.5,20.5c2.8,4.8,7.8,7.5,13,7.5c2.5,0,5.1-0.6,7.5-2l20.1-11.6V497c0,8.3,6.7,15,15,15c8.3,0,15-6.7,15-15
	v-21.7l20.1,11.6c2.4,1.4,4.9,2,7.5,2c5.2,0,10.2-2.7,13-7.5c4.1-7.2,1.7-16.3-5.5-20.5L271,440.6v-59.4l31,13.5
	c3.7,1.6,8,1.7,11.7,0.1s6.7-4.6,8.2-8.4l12.1-31.1l41.9,41.9l-10.5,39.2c-2.1,8,2.6,16.2,10.6,18.4c1.3,0.3,2.6,0.5,3.9,0.5
	c6.6,0,12.7-4.4,14.5-11.1l6-22.5l15.4,15.4c2.9,2.9,6.8,4.4,10.6,4.4s7.7-1.5,10.6-4.4c5.9-5.9,5.9-15.4,0-21.2l-15.4-15.4l22.5-6
	c8-2.1,12.8-10.4,10.6-18.4c-2.1-8-10.4-12.8-18.4-10.6L397.2,376l-42-42l31.5-12.4c3.8-1.5,6.8-4.5,8.4-8.2s1.5-8-0.1-11.7
	L381.4,271h59.2l20.3,35.1c2.8,4.8,7.8,7.5,13,7.5c2.5,0,5.1-0.6,7.5-2c7.2-4.1,9.6-13.3,5.5-20.5L475.3,271H497c8.3,0,15-6.7,15-15
	S505.3,241,497,241L497,241z M179.9,201.1l39.9,39.9h-56.4l-12.5-28.4L179.9,201.1z M179.9,310.9L151,299.7l12.4-28.7h56.4
	L179.9,310.9z M241,348.6l-28.4,12.5l-11.5-29.1l39.9-39.9V348.6z M241,219.8l-39.9-39.9l11.2-28.9l28.7,12.4L241,219.8z
	 M332.1,201.1l28.9,11.2L348.6,241h-56.4L332.1,201.1z M271,163.4l28.4-12.5l11.5,29.1L271,219.8V163.4z M299.7,361L271,348.6v-56.4
	l39.9,39.9L299.7,361z M332.1,310.9L292.2,271h56.4l12.5,28.4L332.1,310.9z"/>
</svg>
