<?xml version="1.0" encoding="utf-8"?>
<!-- Generator: Adobe Illustrator 25.0.1, SVG Export Plug-In . SVG Version: 6.00 Build 0)  -->
<svg version="1.1" id="Capa_1" xmlns="http://www.w3.org/2000/svg" xmlns:xlink="http://www.w3.org/1999/xlink" x="0px" y="0px"
	 viewBox="0 0 219.8 219.8" style="enable-background:new 0 0 219.8 219.8;" xml:space="preserve">
<style type="text/css">
	.st0{fill:#FFFFFF;}
</style>
<path class="st0" d="M202.3,154.6L180,141.7l19.3-11.4c3.6-2.1,4.8-6.7,2.7-10.3c-2.1-3.6-6.7-4.8-10.3-2.7l-26.6,15.7l-40.2-23.2
	l40.2-23.2l26.7,15.7c1.2,0.7,2.5,1,3.8,1c2.6,0,5.1-1.3,6.5-3.7c2.1-3.6,0.9-8.2-2.7-10.3L180,78.1l22.3-12.9
	c3.6-2.1,4.8-6.7,2.7-10.2c-2.1-3.6-6.7-4.8-10.2-2.7l-22.3,12.9l-0.2-22.5c0-4.1-3.4-7.5-7.6-7.4c-4.1,0-7.5,3.4-7.4,7.6l0.3,30.9
	l-40.2,23.2V50.5l26.9-15.2c3.6-2,4.9-6.6,2.8-10.2c-2-3.6-6.6-4.9-10.2-2.8l-19.6,11.1V7.5c0-4.1-3.4-7.5-7.5-7.5s-7.5,3.4-7.5,7.5
	v25.8L82.8,22.2c-3.6-2-8.2-0.8-10.2,2.8c-2,3.6-0.8,8.2,2.8,10.2l26.9,15.2v46.4L62.2,73.7l0.3-30.9c0-4.1-3.3-7.5-7.4-7.6
	c0,0,0,0-0.1,0c-4.1,0-7.5,3.3-7.5,7.4l-0.2,22.5L25,52.2c-3.6-2.1-8.2-0.8-10.2,2.7s-0.8,8.2,2.7,10.2l22.3,12.9L20.4,89.5
	c-3.6,2.1-4.8,6.7-2.7,10.3c1.4,2.4,3.9,3.7,6.5,3.7c1.3,0,2.6-0.3,3.8-1l26.7-15.7l40.2,23.2l-40.2,23.2l-26.7-15.7
	c-3.6-2.1-8.2-0.9-10.3,2.7s-0.9,8.2,2.7,10.3l19.3,11.4l-22.3,12.9c-3.6,2.1-4.8,6.7-2.7,10.2c1.4,2.4,3.9,3.8,6.5,3.8
	c1.3,0,2.6-0.3,3.7-1l22.3-12.9l0.2,22.5c0,4.1,3.4,7.4,7.5,7.4c0,0,0,0,0.1,0c4.1,0,7.5-3.4,7.4-7.6l-0.3-30.9l40.2-23.2v46.4
	l-26.9,15.2c-3.6,2-4.9,6.6-2.8,10.2c1.4,2.4,3.9,3.8,6.5,3.8c1.2,0,2.5-0.3,3.7-1l19.6-11.1v25.8c0,4.1,3.4,7.5,7.5,7.5
	s7.5-3.4,7.5-7.5v-25.8l19.6,11.1c1.2,0.7,2.4,1,3.7,1c2.6,0,5.2-1.4,6.5-3.8c2-3.6,0.8-8.2-2.8-10.2l-26.9-15.2v-46.4l40.2,23.2
	l-0.3,30.9c0,4.1,3.3,7.5,7.4,7.6c0,0,0,0,0.1,0c4.1,0,7.5-3.3,7.5-7.4l0.2-22.5l22.3,12.9c1.2,0.7,2.5,1,3.7,1
	c2.6,0,5.1-1.3,6.5-3.8C207.1,161.2,205.9,156.7,202.3,154.6z"/>
</svg>
