<?xml version="1.0" encoding="utf-8"?>
<!-- Generator: Adobe Illustrator 25.0.1, SVG Export Plug-In . SVG Version: 6.00 Build 0)  -->
<svg version="1.1" id="Capa_1" xmlns="http://www.w3.org/2000/svg" xmlns:xlink="http://www.w3.org/1999/xlink" x="0px" y="0px"
	 viewBox="0 0 512 512" style="enable-background:new 0 0 512 512;" xml:space="preserve">
<style type="text/css">
	.st0{fill:#FFFFFF;}
</style>
<g>
	<path class="st0" d="M184.7,95.2c8.3,0,15-6.7,15-15V50c0-8.3-6.7-15-15-15s-15,6.7-15,15v30.2C169.7,88.5,176.5,95.2,184.7,95.2z"
		/>
	<path class="st0" d="M48.7,150.1L22.5,135c-7.2-4.1-16.3-1.7-20.5,5.5c-4.1,7.2-1.7,16.3,5.5,20.5l26.2,15.1
		c7.2,4.1,16.3,1.7,20.5-5.5C58.3,163.4,55.8,154.2,48.7,150.1z"/>
	<path class="st0" d="M33.7,315.9L7.5,331c-7.2,4.1-9.6,13.3-5.5,20.5c4.2,7.2,13.4,9.6,20.5,5.5l26.2-15.1
		c7.2-4.1,9.6-13.3,5.5-20.5C50,314.2,40.8,311.7,33.7,315.9L33.7,315.9z"/>
	<path class="st0" d="M335.8,176.1L362,161c7.2-4.1,9.6-13.3,5.5-20.5c-4.1-7.2-13.3-9.6-20.5-5.5l-26.2,15.1
		c-7.2,4.1-9.6,13.3-5.5,20.5C319.5,177.8,328.7,180.2,335.8,176.1z"/>
	<path class="st0" d="M398.9,267.3c-17.2-42.4-58.8-70.5-104.6-70.3c-18.8-41.8-60.8-71-109.5-71c-66.2,0-120,53.8-120,120
		c0,42.5,22.2,79.8,55.5,101.1C84.7,403.3,125.1,477,191.7,477c236-0.2,223.1,0.6,227.2-0.7c52.4-5.9,93.1-50.4,93.1-104.3
		C512,310.4,459.4,262.5,398.9,267.3z M94.7,246c0-49.6,40.4-90,90-90c33.5,0,62.7,18.4,78.2,45.5c-47.4,13.9-80.3,57.2-80.8,106.8
		c-14.9,1.6-28.9,7.2-41,16.3C113.5,309.2,94.7,279.8,94.7,246z M413.2,446.7c-5.3,0.4-141.5,0.2-221.5,0.3
		c-49.5,0-73.6-61.3-36.8-94.9c11-10.1,25.8-15.5,41.8-14c9.7,0.9,17.5-7.5,16.2-17c-7-49.6,31.5-94.1,81.7-94.1
		c37.1,0,69.9,25,79.6,60.8c2.1,7.6,9.8,12.4,17.5,10.8c46.8-9.7,90.3,26.1,90.3,73.4C482,410.7,451.8,443.6,413.2,446.7z"/>
</g>
</svg>
